# xmcd CD database file
# Copyright (C) 1993-1997  Ti Kan
#
# Track frame offsets:
#	150
#	11487
#	24005
#	33095
#	45770
#	55820
#	65642
#	75312
#	84032
#	100900
#	114840
#	126460
#	135247
#	149190
#	170140
#	183252
#
# Disc length: 2640 seconds
#
# Revision: 1
# Processed by: cddbd v1.4b41PL1 Copyright (c) Steve Scherf et al.
# Submitted via: xmcd 2.2 PL0
#
DISCID=be0a4e10
DTITLE=Bill Monroe - Country Music Hall of Fame Series
DYEAR=1900
DGENRE=
TTITLE0=New Mule Skinner Blues
TTITLE1=Uncle Pen
TTITLE2=Walking in Jerusalem
TTITLE3=On and On
TTITLE4=White House Blues
TTITLE5=Happy on My Way
TTITLE6=Blue Moon of Kentucky
TTITLE7=Scotland
TTITLE8=Midnight on the Stormy Deep
TTITLE9=Kentucky Mandolin
TTITLE10=Walk Softly on this Heart of Mine
TTITLE11=The Lee Weddin' Tune
TTITLE12=Kentucky Waltz
TTITLE13=My Last Days on Earth
TTITLE14=My Sweet Blue Eyed Darlin'
TTITLE15=Southern Flavor
EXTD=
EXTT0=
EXTT1=
EXTT2=
EXTT3=
EXTT4=
EXTT5=
EXTT6=
EXTT7=
EXTT8=
EXTT9=
EXTT10=
EXTT11=
EXTT12=
EXTT13=
EXTT14=
EXTT15=
PLAYORDER=
